<svg aria-hidden="true" style="position: absolute; width: 0; height: 0; overflow: hidden;" version="1.1" xmlns="http://www.w3.org/2000/svg" xmlns:xlink="http://www.w3.org/1999/xlink">
<defs>

<!-- Logo -->
<symbol id="logo" width="42" height="17" viewBox="0 0 42 17" fill="none" xmlns="http://www.w3.org/2000/svg">
<path d="M0 11V0H12.8903C14.6428 0 16.3497 0.558477 17.7633 1.59437C18.6084 2.21371 19.2833 3.0366 19.7252 3.98661L21.2165 7.19231C21.7922 5.78595 22.5143 4.44406 23.3707 3.18876L23.4446 3.08053C23.6905 2.72004 23.9717 2.38484 24.2838 2.07984L24.919 1.4592C25.333 1.05464 25.8242 0.737558 26.3634 0.526835L26.4183 0.505373C27.2728 0.171398 28.1822 0 29.0996 0H42V11H0Z" fill="#F9F9F9"/>
<rect y="13" width="42" height="4" fill="#F9F9F9"/>
</symbol>


<!-- Eye -->
<symbol id="eye"  viewBox="0 0 20 20" fill="none" xmlns="http://www.w3.org/2000/svg">
<path d="M0.833252 10C0.833252 10 4.16659 3.33334 9.99992 3.33334C15.8333 3.33334 19.1666 10 19.1666 10C19.1666 10 15.8333 16.6667 9.99992 16.6667C4.16659 16.6667 0.833252 10 0.833252 10Z" stroke="currentColor" stroke-width="1.3" stroke-linecap="round" stroke-linejoin="round"/>
<path d="M10 12.5C11.3807 12.5 12.5 11.3807 12.5 10C12.5 8.61929 11.3807 7.5 10 7.5C8.61929 7.5 7.5 8.61929 7.5 10C7.5 11.3807 8.61929 12.5 10 12.5Z" stroke="currentColor" stroke-width="1.3" stroke-linecap="round" stroke-linejoin="round"/>
</symbol>

<!-- Eye-off-->
<symbol id="eye-off" viewBox="0 0 20 20" fill="none" xmlns="http://www.w3.org/2000/svg">
<g clip-path="url(#clip0_18802_99)">
<path d="M14.9499 14.95C13.5254 16.0358 11.7908 16.6374 9.99992 16.6667C4.16659 16.6667 0.833252 10 0.833252 10C1.86983 8.06825 3.30753 6.38051 5.04992 5.05M8.24992 3.53333C8.82353 3.39907 9.41081 3.33195 9.99992 3.33333C15.8333 3.33333 19.1666 10 19.1666 10C18.6607 10.9463 18.0575 11.8373 17.3666 12.6583M11.7666 11.7667C11.5377 12.0123 11.2617 12.2093 10.955 12.3459C10.6484 12.4826 10.3173 12.556 9.98166 12.562C9.64599 12.5679 9.31256 12.5061 9.00126 12.3804C8.68997 12.2547 8.40719 12.0675 8.16979 11.8301C7.9324 11.5927 7.74525 11.31 7.61951 10.9987C7.49377 10.6874 7.43202 10.3539 7.43795 10.0183C7.44387 9.68258 7.51734 9.35154 7.65398 9.04487C7.79062 8.73821 7.98763 8.46221 8.23325 8.23333" stroke="currentColor" stroke-width="1.3" stroke-linecap="round" stroke-linejoin="round"/>
<path d="M0.833252 0.833344L19.1666 19.1667" stroke="currentColor" stroke-width="1.3" stroke-linecap="round" stroke-linejoin="round"/>
</g>
<defs>
<clipPath id="clip0_18802_99">
<rect width="20" height="20" fill="none"/>
</clipPath>
</defs>
</symbol>

<!-- Error -->
<symbol id="error"  viewBox="0 0 20 20" fill="none" xmlns="http://www.w3.org/2000/svg">
<g clip-path="url(#clip0_18803_151)">
<path fill-rule="evenodd" clip-rule="evenodd" d="M10 18.125C12.1549 18.125 14.2215 17.269 15.7452 15.7452C17.269 14.2215 18.125 12.1549 18.125 10C18.125 7.84512 17.269 5.77849 15.7452 4.25476C14.2215 2.73102 12.1549 1.875 10 1.875C7.84512 1.875 5.77849 2.73102 4.25476 4.25476C2.73102 5.77849 1.875 7.84512 1.875 10C1.875 12.1549 2.73102 14.2215 4.25476 15.7452C5.77849 17.269 7.84512 18.125 10 18.125ZM10 20C12.6522 20 15.1957 18.9464 17.0711 17.0711C18.9464 15.1957 20 12.6522 20 10C20 7.34784 18.9464 4.8043 17.0711 2.92893C15.1957 1.05357 12.6522 0 10 0C7.34784 0 4.8043 1.05357 2.92893 2.92893C1.05357 4.8043 0 7.34784 0 10C0 12.6522 1.05357 15.1957 2.92893 17.0711C4.8043 18.9464 7.34784 20 10 20ZM11.25 13.75C11.25 14.0815 11.1183 14.3995 10.8839 14.6339C10.6495 14.8683 10.3315 15 10 15C9.66848 15 9.35054 14.8683 9.11612 14.6339C8.8817 14.3995 8.75 14.0815 8.75 13.75C8.75 13.4185 8.8817 13.1005 9.11612 12.8661C9.35054 12.6317 9.66848 12.5 10 12.5C10.3315 12.5 10.6495 12.6317 10.8839 12.8661C11.1183 13.1005 11.25 13.4185 11.25 13.75ZM10.9375 5.9375C10.9375 5.68886 10.8387 5.4504 10.6629 5.27459C10.4871 5.09877 10.2486 5 10 5C9.75136 5 9.5129 5.09877 9.33709 5.27459C9.16127 5.4504 9.0625 5.68886 9.0625 5.9375V10.3125C9.0625 10.5611 9.16127 10.7996 9.33709 10.9754C9.5129 11.1512 9.75136 11.25 10 11.25C10.2486 11.25 10.4871 11.1512 10.6629 10.9754C10.8387 10.7996 10.9375 10.5611 10.9375 10.3125V5.9375Z" fill="#E90516"/>
</g>
<defs>
<clipPath id="clip0_18803_151">
<rect width="20" height="20" fill="white"/>
</clipPath>
</defs>
</symbol>

<!-- Success -->
<symbol id="success"  viewBox="0 0 20 20" fill="none" xmlns="http://www.w3.org/2000/svg">
<path d="M9.3752 13.6L6 9.79955L7.1248 8.53333L9.3752 11.0658L13.8744 6L15 7.26711L9.3752 13.5982V13.6Z" fill="#30B94D"/>
<path fill-rule="evenodd" clip-rule="evenodd" d="M0 10C0 4.47727 4.47727 0 10 0C15.5227 0 20 4.47727 20 10C20 15.5227 15.5227 20 10 20C4.47727 20 0 15.5227 0 10ZM10 18.1818C8.92555 18.1818 7.86162 17.9702 6.86895 17.559C5.87629 17.1478 4.97433 16.5452 4.21458 15.7854C3.45483 15.0257 2.85216 14.1237 2.44099 13.131C2.02981 12.1384 1.81818 11.0745 1.81818 10C1.81818 8.92555 2.02981 7.86162 2.44099 6.86895C2.85216 5.87629 3.45483 4.97433 4.21458 4.21458C4.97433 3.45483 5.87629 2.85216 6.86895 2.44099C7.86162 2.02981 8.92555 1.81818 10 1.81818C12.17 1.81818 14.251 2.68019 15.7854 4.21458C17.3198 5.74897 18.1818 7.83005 18.1818 10C18.1818 12.17 17.3198 14.251 15.7854 15.7854C14.251 17.3198 12.17 18.1818 10 18.1818Z" fill="#30B94D"/>
</symbol>

<!-- Burger menu -->
<symbol id="burger" viewBox="0 0 28 28" fill="none" xmlns="http://www.w3.org/2000/svg">
<path d="M3.5 14H24.5M3.5 7H24.5M10.5 21H24.5" stroke="currentColor" stroke-width="2" stroke-linecap="round" stroke-linejoin="round"/>
</symbol>

<!-- Arrow -->
<symbol id="arrow" viewBox="0 0 24 24" fill="none" xmlns="http://www.w3.org/2000/svg">
<path d="M14 17L19 12L14 7" stroke="currentColor" stroke-width="2" stroke-linecap="round" stroke-linejoin="round"/>
<path d="M19 12H5" stroke="currentColor" stroke-width="2" stroke-linecap="round" stroke-linejoin="round"/>
</symbol>

<!-- Forward -->
<symbol id="forward" width="16" height="16" viewBox="0 0 16 16" fill="none" xmlns="http://www.w3.org/2000/svg">
<path d="M6 4L10 8L6 12" stroke="#F9F9F9" stroke-width="1.5" stroke-linecap="round" stroke-linejoin="round"/>
</symbol>

<!-- Books -->
<symbol id="books" width="40" height="40" viewBox="0 0 40 40" fill="none" xmlns="http://www.w3.org/2000/svg">
<path d="M0 40H40V1.19209e-05H0V40Z" fill="black"/>
</symbol>

<!-- Close button -->
<symbol id="closeBtn" viewBox="0 0 22 22" fill="none" xmlns="http://www.w3.org/2000/svg">
<path d="M16.5 5.5L5.5 16.5" stroke="#F9F9F9" stroke-width="2" stroke-linecap="round" stroke-linejoin="round"/>
<path d="M5.5 5.5L16.5 16.5" stroke="#F9F9F9" stroke-width="2" stroke-linecap="round" stroke-linejoin="round"/>
</symbol>

<!-- Delete button -->
<symbol id="delete"  viewBox="0 0 14 14" fill="none" xmlns="http://www.w3.org/2000/svg">
<path d="M1.75 3.5H2.91667H12.25" stroke="currentColor" stroke-linecap="round" stroke-linejoin="round"/>
<path d="M11.0833 3.49996V11.6666C11.0833 11.976 10.9604 12.2728 10.7416 12.4916C10.5228 12.7104 10.226 12.8333 9.91663 12.8333H4.08329C3.77387 12.8333 3.47713 12.7104 3.25833 12.4916C3.03954 12.2728 2.91663 11.976 2.91663 11.6666V3.49996M4.66663 3.49996V2.33329C4.66663 2.02387 4.78954 1.72713 5.00834 1.50833C5.22713 1.28954 5.52387 1.16663 5.83329 1.16663H8.16663C8.47605 1.16663 8.77279 1.28954 8.99159 1.50833C9.21038 1.72713 9.33329 2.02387 9.33329 2.33329V3.49996" stroke="currentColor" stroke-linecap="round" stroke-linejoin="round"/>
<path d="M5.83337 6.41663V9.91663" stroke="currentColor" stroke-linecap="round" stroke-linejoin="round"/>
<path d="M8.16663 6.41663V9.91663" stroke="currentColor" stroke-linecap="round" stroke-linejoin="round"/>
</symbol>


<!-- Button arrow -->
<symbol id="btnArrow"  viewBox="0 0 16 16" fill="none" xmlns="http://www.w3.org/2000/svg">
<path d="M4 6L8 10L12 6" stroke="#F9F9F9" stroke-width="1.5" stroke-linecap="round" stroke-linejoin="round"/>
</symbol>

<!-- Start reading button -->
<symbol id="startBtn"  viewBox="0 0 40 40" fill="none" xmlns="http://www.w3.org/2000/svg">
<circle cx="20" cy="20" r="15" fill="#E90516"/>
<circle cx="20" cy="20" r="19" stroke="#F9F9F9" stroke-width="2"/>
</symbol>

<!-- Diary -->
<symbol  id="diary" width="20" height="20" viewBox="0 0 20 20" fill="none" xmlns="http://www.w3.org/2000/svg">
<path d="M10 9.99996L6.43926 7.03268C5.91022 6.59181 5.6457 6.37137 5.45553 6.10116C5.28704 5.86173 5.16191 5.59458 5.08585 5.31186C5 4.99278 5 4.64845 5 3.95979V1.66663M10 9.99996L13.5607 7.03268C14.0898 6.59181 14.3543 6.37137 14.5445 6.10116C14.713 5.86173 14.8381 5.59458 14.9142 5.31186C15 4.99278 15 4.64845 15 3.95979V1.66663M10 9.99996L6.43926 12.9672C5.91022 13.4081 5.6457 13.6285 5.45553 13.8988C5.28704 14.1382 5.16191 14.4053 5.08585 14.6881C5 15.0071 5 15.3515 5 16.0401V18.3333M10 9.99996L13.5607 12.9672C14.0898 13.4081 14.3543 13.6285 14.5445 13.8988C14.713 14.1382 14.8381 14.4053 14.9142 14.6881C15 15.0071 15 15.3515 15 16.0401V18.3333" stroke="currentColor" stroke-width="2" stroke-linecap="round" stroke-linejoin="round"/>
<path d="M3.33333 1.66663H16.6667M3.33333 18.3333H16.6667" stroke="currentColor" stroke-width="2" stroke-linecap="round" stroke-linejoin="round"/>
</symbol>

<!-- Statistics  -->
<symbol id="statistics" width="20" height="20" viewBox="0 0 20 20"  xmlns="http://www.w3.org/2000/svg">
<g clip-path="url(#clip0_18619_1677)">
<path  d="M14.3333 11.6666C14.5642 11.6666 14.6796 11.6666 14.7731 11.7179C14.8503 11.7602 14.9221 11.8396 14.9565 11.9206C14.9981 12.0188 14.9877 12.1232 14.9667 12.3322C14.858 13.4156 14.4851 14.4595 13.8765 15.3704C13.1439 16.4668 12.1027 17.3212 10.8846 17.8258C9.66638 18.3304 8.32593 18.4624 7.03272 18.2052C5.73952 17.948 4.55163 17.313 3.61928 16.3807C2.68693 15.4483 2.05199 14.2604 1.79476 12.9672C1.53752 11.674 1.66955 10.3336 2.17413 9.11541C2.67871 7.89724 3.5332 6.85605 4.62953 6.12351C5.54046 5.51484 6.58437 5.14197 7.66775 5.03327C7.87671 5.01231 7.9812 5.00182 8.07939 5.04348C8.1604 5.07785 8.23979 5.14968 8.28207 5.22684C8.33333 5.32039 8.33333 5.4358 8.33333 5.66664V11C8.33333 11.2333 8.33333 11.35 8.37874 11.4391C8.41869 11.5175 8.48243 11.5813 8.56083 11.6212C8.64996 11.6666 8.76664 11.6666 8.99999 11.6666H14.3333Z" stroke="currentColor" stroke-width="2" stroke-linecap="round" stroke-linejoin="round"/>
<path d="M11.6667 2.33339C11.6667 2.10256 11.6667 1.98714 11.7179 1.89359C11.7602 1.81643 11.8396 1.7446 11.9206 1.71023C12.0188 1.66857 12.1233 1.67905 12.3323 1.70001C13.8559 1.85285 15.2883 2.52698 16.3807 3.61935C17.4731 4.71172 18.1472 6.14414 18.3001 7.66781C18.321 7.87679 18.3315 7.98127 18.2898 8.07947C18.2555 8.16047 18.1836 8.23986 18.1065 8.28214C18.0129 8.33339 17.8975 8.33339 17.6667 8.33339L12.3333 8.33339C12.1 8.33339 11.9833 8.33339 11.8942 8.28798C11.8158 8.24803 11.752 8.18429 11.7121 8.10589C11.6667 8.01676 11.6667 7.90008 11.6667 7.66673L11.6667 2.33339Z" stroke="currentColor" stroke-width="2" stroke-linecap="round" stroke-linejoin="round"/>
</g>
<defs>
<clipPath id="clip0_18619_1677">
<rect width="20" height="20" fill="#686868"/>
</clipPath>
</defs>
</symbol>


</defs>
</svg>
